<svg id="레이어_1" data-name="레이어 1" xmlns="http://www.w3.org/2000/svg" viewBox="0 0 474.36 117.23"><defs><style>.cls-1{fill:none;stroke:#323333;stroke-miterlimit:10;stroke-width:0.43px;}.cls-2{fill:#eee42a;}.cls-3{fill:#234a9d;}.cls-4{fill:#71b12f;}.cls-5{fill:#323333;}.cls-6{fill:#9def3c;}</style></defs><title>대지 1</title><line class="cls-1" x1="80.73" y1="86.17" x2="80.73" y2="61.7"/><path class="cls-2" d="M80.73,61.7H34.26A5,5,0,0,1,31,60.91c-.57-.52-.86-1.6-.86-3.22V14.9q0-7.15-4.22-10.52A15.72,15.72,0,0,0,15.8,1a19.36,19.36,0,0,0-5.51.78A12.27,12.27,0,0,0,2.42,8.67,14.86,14.86,0,0,0,1.2,14.9V63.84a45.53,45.53,0,0,0,1,10.38,14.67,14.67,0,0,0,3.5,6.87A14.51,14.51,0,0,0,12.44,85,39.21,39.21,0,0,0,23.1,86.17H80.73"/><path class="cls-1" d="M80.73,61.7H34.26A5,5,0,0,1,31,60.91c-.57-.52-.86-1.6-.86-3.22V14.9q0-7.15-4.22-10.52A15.72,15.72,0,0,0,15.8,1a19.36,19.36,0,0,0-5.51.78A12.27,12.27,0,0,0,2.42,8.67,14.86,14.86,0,0,0,1.2,14.9V63.84a45.53,45.53,0,0,0,1,10.38,14.67,14.67,0,0,0,3.5,6.87A14.51,14.51,0,0,0,12.44,85,39.21,39.21,0,0,0,23.1,86.17H80.73"/><path class="cls-3" d="M80.73,86.17v7q0,11.6,5.15,17t17.6,5.37h69a11.69,11.69,0,0,0,5.07-1,9.73,9.73,0,0,0,3.37-2.58,10.78,10.78,0,0,0,1.93-3.58,13,13,0,0,0,.64-4,13.86,13.86,0,0,0-.57-3.94A9.47,9.47,0,0,0,181,96.88a10.65,10.65,0,0,0-3.44-2.58,11.69,11.69,0,0,0-5.07-1h-58.4a5.06,5.06,0,0,1-3.21-.85,3.66,3.66,0,0,1-1.08-3V84h59.54q5.87,0,8.44-3.36a12,12,0,0,0,2.57-7.51,12.4,12.4,0,0,0-2.5-7.45q-2.51-3.44-8.51-3.43H109.78V56.67q0-3.72,4.29-3.72h56.11q5.87,0,8.44-3.44a12.38,12.38,0,0,0,2.58-7.58,14.62,14.62,0,0,0-.58-4,9.95,9.95,0,0,0-5.36-6.29,11.62,11.62,0,0,0-5.08-1h-66.7Q91,30.62,85.88,36T80.73,53V61.7"/><path class="cls-1" d="M80.73,86.17v7q0,11.6,5.15,17t17.6,5.37h69a11.69,11.69,0,0,0,5.07-1,9.73,9.73,0,0,0,3.37-2.58,10.78,10.78,0,0,0,1.93-3.58,13,13,0,0,0,.64-4,13.86,13.86,0,0,0-.57-3.94A9.47,9.47,0,0,0,181,96.88a10.65,10.65,0,0,0-3.44-2.58,11.69,11.69,0,0,0-5.07-1h-58.4a5.06,5.06,0,0,1-3.21-.85,3.66,3.66,0,0,1-1.08-3V84h59.54q5.87,0,8.44-3.36a12,12,0,0,0,2.57-7.51,12.4,12.4,0,0,0-2.5-7.45q-2.51-3.44-8.51-3.43H109.78V56.67q0-3.72,4.29-3.72h56.11q5.87,0,8.44-3.44a12.38,12.38,0,0,0,2.58-7.58,14.62,14.62,0,0,0-.58-4,9.95,9.95,0,0,0-5.36-6.29,11.62,11.62,0,0,0-5.08-1h-66.7Q91,30.62,85.88,36T80.73,53V61.7"/><path class="cls-4" d="M80.73,62.28H91.36a12.31,12.31,0,0,1,5.3,1A10.2,10.2,0,0,1,100.17,66a10.89,10.89,0,0,1,2,3.68,13.52,13.52,0,0,1,.64,4.09,14.22,14.22,0,0,1-.64,4.16,11.4,11.4,0,0,1-2,3.81,10.33,10.33,0,0,1-3.58,2.8,11.69,11.69,0,0,1-5.23,1.09H80.73"/><rect class="cls-5" x="80.15" y="61.12" width="1.16" height="1.16"/><rect class="cls-5" x="80.15" y="85.59" width="1.16" height="1.16"/><path class="cls-6" d="M242.78,42.12A25.08,25.08,0,1,1,217.7,17a25.08,25.08,0,0,1,25.08,25.08"/><path d="M277.21,75.9H262.63V99.46h-7.47V75.9H239.93V99.46h-7.47V75.9H218V69.81h59.25Zm-6.82-14.51H225.28V37h7.54V55.3h37.57Z"/><path d="M322.42,66.54c-8.92,1.59-16.53,1.89-29.87,1.89H287.4V37.38h30.31v6H294.87v6.39h21.61v6H294.87V62.4c11.6-.07,18.56-.35,26.76-1.81Zm6,6.53h7.39V98.6H293.93V73.07h7.39v6.74h27.13Zm0,12.62H301.32v6.88h27.13Zm16.68-30.82h-9.29V70.24h-7.47V33.9h7.47V48.7h9.29Z"/><path d="M390.2,46.23H351.55V40.28h15.59V33.54h7.46v6.74h15.6ZM370.83,72.92C361.41,72.92,355,68.13,355,61s6.46-12,15.88-12,15.88,4.79,15.88,12-6.45,11.89-15.88,11.89m-11.31,5.15H402.6V99.39h-7.47V84.09H359.52Zm11.31-10.88c5.23,0,8.78-2.32,8.78-6.16s-3.55-6.24-8.78-6.24-8.7,2.32-8.7,6.24,3.48,6.16,8.7,6.16m41.05-9.57H402.6V74.88h-7.47v-41h7.47V51.46h9.28Z"/><path d="M436.14,69.37c-6.23.29-12.11.36-17.33.36l-.94-6.09c12-.07,28.13-.22,42-2l.57,5.36a163.28,163.28,0,0,1-16.82,1.9V81.55h-7.47ZM422.87,47.9c0-7,6.6-11.53,16.24-11.53s16.17,4.57,16.17,11.53-6.59,11.54-16.17,11.54-16.24-4.58-16.24-11.54M474,92.07v6.09H426.71V78.8h7.47V92.07ZM430,47.9c0,3.7,3.69,6,9.13,6s9.07-2.32,9.07-6-3.7-6-9.07-6S430,44.2,430,47.9m35,24.44V33.83h7.48V83.66H465v-6.1H452.17V72.34Z"/></svg>